<?xml version="1.0" encoding="UTF-8" standalone="no"?>
<!-- Created with Inkscape (http://www.inkscape.org/) -->

<svg
   version="1.1"
   id="svg11336"
   width="880"
   height="880"
   viewBox="0 0 880 880"
   sodipodi:docname="sweet-jelly-publicdomain.svg"
   inkscape:version="1.2 (dc2aedaf03, 2022-05-15)"
   xmlns:inkscape="http://www.inkscape.org/namespaces/inkscape"
   xmlns:sodipodi="http://sodipodi.sourceforge.net/DTD/sodipodi-0.dtd"
   xmlns="http://www.w3.org/2000/svg"
   xmlns:svg="http://www.w3.org/2000/svg">
  <defs
     id="defs11340">
    <clipPath
       clipPathUnits="userSpaceOnUse"
       id="clipPath11352">
      <path
         d="M 0,660 H 660 V 0 H 0 Z"
         id="path11350" />
    </clipPath>
  </defs>
  <sodipodi:namedview
     id="namedview11338"
     pagecolor="#ffffff"
     bordercolor="#000000"
     borderopacity="0.25"
     inkscape:showpageshadow="2"
     inkscape:pageopacity="0.0"
     inkscape:pagecheckerboard="0"
     inkscape:deskcolor="#d1d1d1"
     showgrid="false"
     inkscape:zoom="0.95113636"
     inkscape:cx="441.05137"
     inkscape:cy="440.52569"
     inkscape:window-width="1920"
     inkscape:window-height="1017"
     inkscape:window-x="-8"
     inkscape:window-y="-8"
     inkscape:window-maximized="1"
     inkscape:current-layer="g11344">
    <inkscape:page
       x="0"
       y="0"
       id="page11342"
       width="880"
       height="880" />
  </sodipodi:namedview>
  <g
     id="g11344"
     inkscape:groupmode="layer"
     inkscape:label="Page 1"
     transform="matrix(1.3333333,0,0,-1.3333333,0,880)">
    <g
       id="g11346">
      <g
         id="g11348"
         clip-path="url(#clipPath11352)">
        <g
           id="g11354"
           transform="translate(247.9395,545.7534)">
          <path
             d="M 0,0 C 51.77,0 56.475,-74.053 50.2,-125.602 L 25.633,-327.369 c -5.786,-47.534 -52.421,-48.102 -104.191,-48.102 -51.769,0 -98.166,0.568 -84.063,48.102 l 59.863,201.767 C -87.463,-74.053 -51.771,0 0,0"
             style="fill:#f07c00;fill-opacity:1;fill-rule:evenodd;stroke:none"
             id="path11356" />
        </g>
        <g
           id="g11358"
           transform="translate(241.9893,542.6372)">
          <path
             d="M 0,0 C 41.324,0 42.212,-72.825 35.205,-123.517 L 7.781,-321.935 c -6.462,-46.743 -43.709,-47.305 -85.033,-47.305 -41.324,0 -78.336,0.559 -65.237,47.305 l 55.601,198.418 C -72.682,-72.824 -41.324,0 0,0"
             style="fill:#ff9100;fill-opacity:1;fill-rule:evenodd;stroke:none"
             id="path11360" />
        </g>
        <g
           id="g11362"
           transform="translate(212.415,497.3755)">
          <path
             d="M 0,0 C 31.21,0 30.276,-62.667 23.867,-106.291 L -1.216,-277.035 c -5.91,-40.224 -34.052,-40.707 -65.263,-40.707 -31.209,0 -59.151,0.481 -48.228,40.707 l 46.363,170.744 C -56.498,-62.666 -31.21,0 0,0"
             style="fill:#ff9d1c;fill-opacity:1;fill-rule:evenodd;stroke:none"
             id="path11364" />
        </g>
        <g
           id="g11366"
           transform="translate(217.9912,497.3755)">
          <path
             d="M 0,0 C 24.019,0 28.998,-37.111 27.098,-74.098 23.644,-49.708 14.088,-30.6 -6.403,-30.6 -26.89,-30.6 -44.442,-49.708 -58.104,-74.098 -44.527,-37.112 -24.018,0 0,0"
             style="fill:#ffba52;fill-opacity:1;fill-rule:evenodd;stroke:none"
             id="path11368" />
        </g>
        <g
           id="g11370"
           transform="translate(166.5303,358.0181)">
          <path
             d="m 0,0 c 16.052,0 15.572,-32.233 12.276,-54.671 l -12.903,-87.822 c -3.037,-20.688 -17.513,-20.936 -33.566,-20.936 -16.053,0 -30.425,0.248 -24.806,20.936 l 23.847,87.822 C -29.06,-32.233 -16.054,0 0,0"
             style="fill:#ffba52;fill-opacity:1;fill-rule:evenodd;stroke:none"
             id="path11372" />
        </g>
        <g
           id="g11374"
           transform="translate(217.5313,508.5664)">
          <path
             d="m 0,0 c 15.559,0 18.787,-24.043 17.557,-48.005 -2.239,15.801 -8.431,28.181 -21.705,28.181 -13.275,0 -24.646,-12.38 -33.496,-28.181 C -28.848,-24.043 -15.56,0 0,0"
             style="fill:#ffd9a1;fill-opacity:1;fill-rule:evenodd;stroke:none"
             id="path11376" />
        </g>
        <g
           id="g11378"
           transform="translate(156.3945,312.585)">
          <path
             d="m 0,0 c 10.4,0 10.09,-20.883 7.952,-35.419 l -8.357,-56.897 c -1.969,-13.404 -11.347,-13.566 -21.747,-13.566 -10.401,0 -19.711,0.162 -16.072,13.566 l 15.45,56.897 C -18.827,-20.882 -10.4,0 0,0"
             style="fill:#ffd9a1;fill-opacity:1;fill-rule:evenodd;stroke:none"
             id="path11380" />
        </g>
        <g
           id="g11382"
           transform="translate(285.0986,545.7534)">
          <path
             d="M 0,0 C 51.77,0 61.248,-74.053 58.296,-125.602 L 46.735,-327.369 c -2.722,-47.534 -49.319,-48.102 -101.09,-48.102 -51.771,0 -98.204,0.568 -87.164,48.102 l 46.856,201.767 C -82.691,-74.053 -51.77,0 0,0"
             style="fill:#f07c00;fill-opacity:1;fill-rule:evenodd;stroke:none"
             id="path11384" />
        </g>
        <g
           id="g11386"
           transform="translate(284.6465,542.6372)">
          <path
             d="M 0,0 C 41.325,0 46.905,-72.825 43.166,-123.517 L 28.532,-321.935 c -3.449,-46.743 -40.659,-47.305 -81.983,-47.305 -41.324,0 -78.374,0.559 -68.289,47.305 l 42.812,198.418 C -67.988,-72.824 -41.324,0 0,0"
             style="fill:#ff9100;fill-opacity:1;fill-rule:evenodd;stroke:none"
             id="path11388" />
        </g>
        <g
           id="g11390"
           transform="translate(278.0947,497.3755)">
          <path
             d="M 0,0 C 31.212,0 34.315,-62.667 30.72,-106.291 L 16.643,-277.035 c -3.319,-40.224 -31.431,-40.707 -62.641,-40.707 -31.21,0 -59.183,0.481 -50.852,40.707 l 35.357,170.744 C -52.46,-62.666 -31.211,0 0,0"
             style="fill:#ff9d1c;fill-opacity:1;fill-rule:evenodd;stroke:none"
             id="path11392" />
        </g>
        <g
           id="g11394"
           transform="translate(278.0947,497.3755)">
          <path
             d="M 0,0 C 24.018,0 31.389,-37.111 31.873,-74.098 26.848,-49.708 16.06,-30.6 -4.43,-30.6 -24.92,-30.6 -41.238,-49.708 -53.327,-74.098 -42.136,-37.112 -24.017,0 0,0 m -20.173,-139.357 c 16.052,0 17.65,-32.233 15.8,-54.672 l -7.242,-87.821 c -1.704,-20.689 -16.165,-20.937 -32.219,-20.937 -16.052,0 -30.439,0.248 -26.153,20.937 l 18.185,87.821 c 4.645,22.439 15.575,54.672 31.629,54.672"
             style="fill:#ffba52;fill-opacity:1;fill-rule:evenodd;stroke:none"
             id="path11396" />
        </g>
        <g
           id="g11398"
           transform="translate(279.7158,508.5664)">
          <path
             d="m 0,0 c 15.56,0 20.336,-24.043 20.648,-48.005 -3.255,15.801 -10.246,28.181 -23.52,28.181 -13.273,0 -23.847,-12.38 -31.678,-28.181 C -27.3,-24.043 -15.561,0 0,0"
             style="fill:#ffd9a1;fill-opacity:1;fill-rule:evenodd;stroke:none"
             id="path11400" />
        </g>
        <g
           id="g11402"
           transform="translate(251.3438,312.585)">
          <path
             d="M 0,0 C 10.4,0 11.434,-20.883 10.237,-35.419 L 5.546,-92.316 c -1.106,-13.404 -10.474,-13.566 -20.874,-13.566 -10.399,0 -19.721,0.162 -16.945,13.566 l 11.782,56.897 C -17.482,-20.882 -10.4,0 0,0"
             style="fill:#ffd9a1;fill-opacity:1;fill-rule:evenodd;stroke:none"
             id="path11404" />
        </g>
        <g
           id="g11406"
           transform="translate(427.209,545.7534)">
          <path
             d="m 0,0 c -51.77,0 -56.475,-74.053 -50.2,-125.602 l 24.566,-201.767 c 5.786,-47.534 52.421,-48.102 104.191,-48.102 51.771,0 98.168,0.568 84.064,48.102 l -59.863,201.767 C 87.463,-74.053 51.771,0 0,0"
             style="fill:#f07c00;fill-opacity:1;fill-rule:evenodd;stroke:none"
             id="path11408" />
        </g>
        <g
           id="g11410"
           transform="translate(433.1582,542.6372)">
          <path
             d="M 0,0 C -41.324,0 -42.212,-72.825 -35.205,-123.517 L -7.78,-321.935 c 6.462,-46.743 43.708,-47.305 85.032,-47.305 41.324,0 78.337,0.559 65.237,47.305 l -55.6,198.418 C 72.684,-72.824 41.325,0 0,0"
             style="fill:#ff9100;fill-opacity:1;fill-rule:evenodd;stroke:none"
             id="path11412" />
        </g>
        <g
           id="g11414"
           transform="translate(462.7334,497.3755)">
          <path
             d="M 0,0 C -31.211,0 -30.276,-62.667 -23.867,-106.291 L 1.216,-277.035 c 5.909,-40.224 34.052,-40.707 65.261,-40.707 31.213,0 59.154,0.481 48.23,40.707 L 68.345,-106.291 C 56.498,-62.666 31.21,0 0,0"
             style="fill:#ff9d1c;fill-opacity:1;fill-rule:evenodd;stroke:none"
             id="path11416" />
        </g>
        <g
           id="g11418"
           transform="translate(457.1563,497.3755)">
          <path
             d="m 0,0 c -24.016,0 -28.997,-37.111 -27.098,-74.098 3.457,24.39 13.013,43.498 33.501,43.498 20.49,0 38.039,-19.108 51.701,-43.498 C 44.527,-37.112 24.018,0 0,0"
             style="fill:#ffba52;fill-opacity:1;fill-rule:evenodd;stroke:none"
             id="path11420" />
        </g>
        <g
           id="g11422"
           transform="translate(508.6172,358.0181)">
          <path
             d="m 0,0 c -16.052,0 -15.571,-32.233 -12.276,-54.671 l 12.903,-87.822 c 3.04,-20.688 17.515,-20.936 33.568,-20.936 16.052,0 30.423,0.248 24.805,20.936 L 35.153,-54.671 C 29.06,-32.233 16.054,0 0,0"
             style="fill:#ffba52;fill-opacity:1;fill-rule:evenodd;stroke:none"
             id="path11424" />
        </g>
        <g
           id="g11426"
           transform="translate(457.6182,508.5664)">
          <path
             d="m 0,0 c -15.562,0 -18.786,-24.043 -17.557,-48.005 2.24,15.801 8.429,28.181 21.703,28.181 13.275,0 24.646,-12.38 33.496,-28.181 C 28.847,-24.043 15.56,0 0,0"
             style="fill:#ffd9a1;fill-opacity:1;fill-rule:evenodd;stroke:none"
             id="path11428" />
        </g>
        <g
           id="g11430"
           transform="translate(518.7539,312.585)">
          <path
             d="m 0,0 c -10.4,0 -10.088,-20.883 -7.954,-35.419 l 8.359,-56.897 c 1.969,-13.404 11.347,-13.566 21.747,-13.566 10.401,0 19.71,0.162 16.073,13.566 L 22.773,-35.419 C 18.827,-20.882 10.4,0 0,0"
             style="fill:#ffd9a1;fill-opacity:1;fill-rule:evenodd;stroke:none"
             id="path11432" />
        </g>
        <g
           id="g11434"
           transform="translate(390.0488,545.7534)">
          <path
             d="m 0,0 c -51.768,0 -61.248,-74.053 -58.296,-125.602 l 11.561,-201.767 c 2.722,-47.534 49.321,-48.102 101.09,-48.102 51.772,0 98.205,0.568 87.165,48.102 L 94.663,-125.602 C 82.691,-74.053 51.771,0 0,0"
             style="fill:#f07c00;fill-opacity:1;fill-rule:evenodd;stroke:none"
             id="path11436" />
        </g>
        <g
           id="g11438"
           transform="translate(390.501,542.6372)">
          <path
             d="m 0,0 c -41.324,0 -46.905,-72.825 -43.166,-123.517 l 14.637,-198.418 c 3.448,-46.743 40.658,-47.305 81.982,-47.305 41.324,0 78.373,0.559 68.287,47.305 L 78.928,-123.517 C 67.99,-72.824 41.324,0 0,0"
             style="fill:#ff9100;fill-opacity:1;fill-rule:evenodd;stroke:none"
             id="path11440" />
        </g>
        <g
           id="g11442"
           transform="translate(397.0537,497.3755)">
          <path
             d="m 0,0 c -31.21,0 -34.316,-62.667 -30.718,-106.291 l 14.077,-170.744 c 3.316,-40.224 31.428,-40.707 62.638,-40.707 31.21,0 59.184,0.481 50.854,40.707 L 61.492,-106.291 C 52.459,-62.666 31.21,0 0,0"
             style="fill:#ff9d1c;fill-opacity:1;fill-rule:evenodd;stroke:none"
             id="path11444" />
        </g>
        <g
           id="g11446"
           transform="translate(397.0537,497.3755)">
          <path
             d="m 0,0 c -24.018,0 -31.39,-37.111 -31.874,-74.098 5.028,24.39 15.814,43.498 36.303,43.498 20.491,0 36.808,-19.108 48.897,-43.498 C 42.135,-37.112 24.018,0 0,0 m 20.174,-139.357 c -16.054,0 -17.649,-32.233 -15.8,-54.672 l 7.24,-87.821 c 1.707,-20.689 16.165,-20.937 32.219,-20.937 16.052,0 30.44,0.248 26.156,20.937 l -18.187,87.821 c -4.645,22.439 -15.574,54.672 -31.628,54.672"
             style="fill:#ffba52;fill-opacity:1;fill-rule:evenodd;stroke:none"
             id="path11448" />
        </g>
        <g
           id="g11450"
           transform="translate(395.4346,508.5664)">
          <path
             d="m 0,0 c -15.563,0 -20.338,-24.043 -20.65,-48.005 3.256,15.801 10.245,28.181 23.519,28.181 13.276,0 23.847,-12.38 31.679,-28.181 C 27.297,-24.043 15.559,0 0,0"
             style="fill:#ffd9a1;fill-opacity:1;fill-rule:evenodd;stroke:none"
             id="path11452" />
        </g>
        <g
           id="g11454"
           transform="translate(423.8047,312.585)">
          <path
             d="m 0,0 c -10.4,0 -11.436,-20.883 -10.235,-35.419 l 4.691,-56.897 c 1.105,-13.404 10.471,-13.566 20.871,-13.566 10.402,0 19.723,0.162 16.945,13.566 L 20.49,-35.419 C 17.481,-20.882 10.4,0 0,0"
             style="fill:#ffd9a1;fill-opacity:1;fill-rule:evenodd;stroke:none"
             id="path11456" />
        </g>
        <g
           id="g11458"
           transform="translate(337.5742,545.7534)">
          <path
             d="M 0,0 C 51.772,0 71.97,-74.053 76.479,-125.602 L 94.128,-327.369 C 98.287,-374.903 51.772,-375.471 0,-375.471 c -51.771,0 -98.285,0.568 -94.129,48.102 l 17.651,201.767 C -71.968,-74.053 -51.771,0 0,0"
             style="fill:#f07c00;fill-opacity:1;fill-rule:evenodd;stroke:none"
             id="path11460" />
        </g>
        <g
           id="g11462"
           transform="translate(337.5742,542.6372)">
          <path
             d="M 0,0 C 41.324,0 57.446,-72.825 61.047,-123.517 L 75.136,-321.935 C 78.453,-368.678 41.324,-369.24 0,-369.24 c -41.325,0 -78.454,0.559 -75.135,47.305 l 14.088,198.418 C -57.447,-72.824 -41.324,0 0,0"
             style="fill:#ff9100;fill-opacity:1;fill-rule:evenodd;stroke:none"
             id="path11464" />
        </g>
        <g
           id="g11466"
           transform="translate(337.5742,497.3755)">
          <path
             d="M 0,0 C 31.21,0 43.388,-62.667 46.107,-106.291 L 56.744,-277.035 C 59.251,-317.259 31.21,-317.742 0,-317.742 c -31.21,0 -59.252,0.481 -56.745,40.707 l 10.641,170.744 C -43.386,-62.666 -31.21,0 0,0"
             style="fill:#ff9d1c;fill-opacity:1;fill-rule:evenodd;stroke:none"
             id="path11468" />
        </g>
        <g
           id="g11470"
           transform="translate(337.5742,497.3755)">
          <path
             d="M 0,0 C 24.018,0 36.762,-37.111 42.601,-74.098 34.044,-49.708 20.488,-30.6 0,-30.6 -20.489,-30.6 -34.042,-49.708 -42.6,-74.098 -36.763,-37.112 -24.017,0 0,0 m 0,-139.357 c 16.054,0 22.315,-32.233 23.716,-54.672 l 5.47,-87.821 c 1.29,-20.689 -13.132,-20.937 -29.186,-20.937 -16.054,0 -30.477,0.248 -29.187,20.937 l 5.473,87.821 c 1.398,22.439 7.66,54.672 23.714,54.672"
             style="fill:#ffba52;fill-opacity:1;fill-rule:evenodd;stroke:none"
             id="path11472" />
        </g>
        <g
           id="g11474"
           transform="translate(337.5742,508.5664)">
          <path
             d="m 0,0 c 15.56,0 23.816,-24.043 27.6,-48.005 -5.544,15.801 -14.326,28.181 -27.6,28.181 -13.274,0 -22.056,-12.38 -27.599,-28.181 C -23.816,-24.043 -15.56,0 0,0"
             style="fill:#ffd9a1;fill-opacity:1;fill-rule:evenodd;stroke:none"
             id="path11476" />
        </g>
        <g
           id="g11478"
           transform="translate(337.5742,312.585)">
          <path
             d="m 0,0 c 10.4,0 14.458,-20.883 15.363,-35.419 l 3.546,-56.897 C 19.744,-105.72 10.4,-105.882 0,-105.882 c -10.401,0 -19.745,0.162 -18.91,13.566 l 3.546,56.897 C -14.457,-20.882 -10.401,0 0,0"
             style="fill:#ffd9a1;fill-opacity:1;fill-rule:evenodd;stroke:none"
             id="path11480" />
        </g>
        <g
           id="g11482"
           transform="translate(57.1309,180.9893)">
          <path
             d="M 0,0 H 548.934 L 491.752,-34.693 H 57.182 Z"
             style="fill:#823103;fill-opacity:1;fill-rule:evenodd;stroke:none"
             id="path11484" />
        </g>
        <g
           id="g11486"
           transform="translate(286.5449,180.9893)">
          <path
             d="M 0,0 H 319.52 L 262.338,-34.693 H 30.18 c 59.092,3.089 99.597,9.418 99.597,16.727 C 129.777,-9.473 75.039,-2.299 0,0"
             style="fill:#5c2200;fill-opacity:1;fill-rule:evenodd;stroke:none"
             id="path11488" />
        </g>
        <g
           id="g11490"
           transform="translate(87.3223,173.4785)">
          <path
             d="M 0,0 C 14.24,1.098 310.298,4.62 237.09,-8.736 199.242,-15.643 24.192,-22.495 -3.193,-1.097 Z"
             style="fill:#a6450d;fill-opacity:1;fill-rule:evenodd;stroke:none"
             id="path11492" />
        </g>
      </g>
    </g>
  </g>
</svg>
